<?xml version="1.0" standalone="no"?>
<!DOCTYPE svg PUBLIC "-//W3C//DTD SVG 20010904//EN"
 "http://www.w3.org/TR/2001/REC-SVG-20010904/DTD/svg10.dtd">
<svg version="1.0" xmlns="http://www.w3.org/2000/svg"
 width="1536.000000pt" height="1024.000000pt" viewBox="0 0 1536.000000 1024.000000"
 preserveAspectRatio="xMidYMid meet">

<g transform="translate(0.000000,1024.000000) scale(0.100000,-0.100000)"
fill="#000000" stroke="none">
<path d="M3393 6631 c-48 -12 -119 -58 -147 -94 -59 -78 -57 -24 -54 -1287 l3
-1155 27 -51 c31 -59 73 -98 138 -128 45 -21 50 -21 1155 -21 1042 0 1112 1
1148 18 52 24 114 83 140 131 l22 41 3 1164 c3 1279 5 1216 -57 1292 -16 19
-53 48 -82 64 l-54 30 -1105 2 c-608 0 -1119 -2 -1137 -6z m2227 -149 c22 -12
44 -35 58 -62 l22 -44 0 -1101 c0 -716 -4 -1113 -10 -1137 -6 -20 -26 -50 -46
-67 l-35 -31 -1097 2 c-1079 3 -1097 3 -1124 23 -61 46 -58 -23 -58 1208 0
1102 0 1123 20 1155 11 18 34 41 52 52 32 20 53 20 1108 20 1021 0 1077 -1
1110 -18z"/>
<path d="M3477 6373 c-4 -3 -7 -500 -7 -1104 l0 -1099 23 -5 c12 -3 479 -4
1037 -3 l1015 3 3 1094 c1 800 -1 1097 -9 1107 -10 12 -185 14 -1034 14 -562
0 -1025 -3 -1028 -7z m498 -504 c218 -187 275 -240 275 -258 0 -22 -391 -364
-420 -369 -20 -3 -80 47 -80 67 0 16 34 49 180 177 74 65 136 123 137 128 1 6
-54 58 -123 116 -159 133 -194 165 -194 178 0 21 52 72 73 72 13 0 74 -44 152
-111z m285 -921 l0 -133 72 80 c40 44 95 104 123 133 l50 53 71 -3 72 -3 -123
-134 -123 -133 126 -157 c69 -86 130 -162 135 -168 7 -10 -8 -13 -69 -13 l-79
1 -99 125 -99 125 -28 -27 c-28 -27 -29 -31 -29 -126 l0 -98 -60 0 -60 0 0
305 0 305 60 0 60 0 0 -132z m830 111 c25 -11 56 -30 68 -42 29 -27 62 -89 62
-117 0 -17 -6 -20 -49 -20 -46 0 -51 3 -70 35 -55 93 -215 82 -268 -18 -10
-20 -18 -64 -21 -117 -5 -109 19 -163 88 -197 54 -28 92 -29 146 -4 42 19 74
67 74 110 0 20 -5 21 -86 21 l-85 0 3 48 3 47 138 3 137 3 0 -74 c0 -42 -7
-94 -15 -118 -43 -122 -188 -186 -328 -145 -78 23 -136 70 -172 141 -27 53
-30 68 -30 154 0 80 4 105 24 149 28 62 94 124 154 146 63 22 173 20 227 -5z"/>
<path d="M11986 6445 c-94 -33 -136 -98 -136 -207 l0 -68 -45 0 -45 0 0 -70 0
-70 45 0 45 0 0 -280 0 -280 85 0 85 0 0 280 0 280 90 0 90 0 0 70 0 70 -90 0
-90 0 0 54 c0 79 17 96 105 100 l70 4 3 66 3 66 -88 0 c-49 -1 -105 -7 -127
-15z"/>
<path d="M6377 5948 l3 -473 85 -3 85 -3 0 139 0 139 54 61 54 60 133 -198
134 -199 102 -1 c56 0 104 3 106 8 2 4 -78 123 -179 264 l-184 256 168 202
c92 111 169 206 170 211 2 5 -38 9 -95 9 l-99 0 -174 -205 c-96 -113 -178
-205 -182 -205 -5 0 -8 92 -8 205 l0 205 -87 0 -88 0 2 -472z"/>
<path d="M10590 6263 l0 -93 -55 0 -55 0 0 -68 0 -68 54 3 55 2 3 -227 c3
-262 8 -279 88 -320 39 -20 57 -22 145 -20 l100 3 0 65 0 65 -62 3 c-53 3 -65
7 -83 29 -19 25 -20 37 -18 211 l3 185 78 -2 77 -2 0 70 0 71 -80 0 -80 0 0
93 0 92 -85 0 -85 0 0 -92z"/>
<path d="M7459 6167 c-18 -12 -44 -40 -56 -62 l-23 -40 0 53 0 52 -85 0 -85 0
2 -347 3 -348 82 -3 82 -3 3 228 c3 208 5 231 23 263 32 53 76 73 159 74 39 1
70 5 69 9 -2 4 -3 39 -3 77 l0 70 -69 0 c-54 0 -75 -5 -102 -23z"/>
<path d="M9300 6177 c-131 -37 -197 -134 -170 -249 22 -90 84 -131 255 -168
123 -26 145 -39 145 -85 0 -93 -170 -115 -225 -28 -20 32 -20 32 -106 33 l-87
0 7 -32 c19 -84 81 -148 165 -173 62 -19 189 -19 249 -1 162 49 228 224 124
333 -41 43 -74 58 -206 89 -123 28 -151 46 -151 93 0 87 172 106 210 24 l15
-33 88 0 87 0 -6 28 c-26 108 -124 173 -269 179 -45 1 -100 -3 -125 -10z"/>
<path d="M11213 6172 c-157 -52 -240 -186 -231 -371 7 -144 72 -252 186 -308
53 -26 66 -28 177 -28 111 0 124 2 177 28 130 64 194 187 186 356 -7 151 -71
251 -198 310 -73 33 -218 40 -297 13z m198 -133 c40 -14 84 -52 107 -94 26
-48 23 -198 -6 -252 -36 -68 -73 -88 -167 -88 -94 0 -131 20 -167 88 -29 54
-32 204 -6 252 46 84 148 124 239 94z"/>
<path d="M7710 6105 l0 -65 185 -2 185 -3 -185 -215 -185 -215 0 -67 0 -68
300 0 300 0 0 65 0 65 -201 0 c-112 0 -199 4 -197 9 2 5 90 109 196 231 l192
223 0 53 0 54 -295 0 -295 0 0 -65z"/>
<path d="M8380 6166 c0 -2 59 -154 131 -337 72 -184 133 -341 136 -349 2 -9
-5 -41 -17 -72 -24 -64 -53 -83 -120 -76 l-40 4 0 -68 0 -68 80 0 c137 0 167
23 224 173 20 51 96 251 169 445 l134 352 -87 0 -87 0 -84 -240 c-46 -132 -85
-236 -87 -232 -1 4 -40 111 -86 237 l-84 230 -91 3 c-50 1 -91 1 -91 -2z"/>
<path d="M9800 6105 l0 -65 181 -2 180 -3 -133 -155 c-73 -86 -155 -181 -181
-212 -47 -55 -48 -58 -49 -125 l-1 -68 296 -3 297 -2 0 65 0 65 -200 0 c-110
0 -200 2 -200 5 0 3 88 107 195 231 l195 227 0 53 0 54 -290 0 -290 0 0 -65z"/>
<path d="M8120 4625 l0 -486 82 3 82 3 -3 55 -2 55 31 -38 c50 -59 101 -81
190 -81 188 0 300 132 300 355 0 157 -68 280 -181 329 -43 18 -66 21 -134 18
-70 -2 -88 -7 -122 -31 -22 -15 -46 -39 -53 -52 -7 -14 -16 -25 -19 -25 -3 0
-5 85 -3 190 l3 190 -86 0 -85 0 0 -485z m426 54 c88 -54 110 -252 39 -345
-50 -65 -155 -80 -232 -33 -53 33 -63 63 -63 194 l0 116 38 40 c57 62 146 73
218 28z"/>
<path d="M8930 4627 l0 -483 85 0 85 1 0 100 0 101 40 39 c24 24 43 35 49 30
5 -6 47 -68 94 -139 l86 -130 101 -3 c64 -3 100 0 100 6 0 6 -57 93 -126 193
-70 100 -128 187 -131 194 -2 6 54 74 126 151 71 78 127 144 124 147 -4 3 -50
6 -103 6 l-97 0 -129 -141 -129 -142 -3 277 -2 276 -85 0 -85 0 0 -483z"/>
<path d="M6706 5089 c-229 -33 -371 -241 -353 -519 13 -207 104 -348 267 -411
78 -31 235 -38 316 -14 65 18 135 59 176 102 60 62 98 193 98 336 l0 67 -195
0 -195 0 0 -75 0 -75 105 0 105 0 0 -27 c-1 -71 -62 -146 -139 -172 -45 -15
-133 -14 -185 1 -61 18 -131 93 -150 159 -44 157 -20 322 58 407 42 47 95 66
181 66 64 1 88 -4 122 -21 45 -24 78 -64 88 -106 7 -27 7 -27 101 -27 l94 0
-6 28 c-35 152 -159 258 -329 282 -79 11 -78 11 -159 -1z"/>
<path d="M9884 4840 c-80 -12 -123 -30 -167 -69 -43 -38 -67 -84 -67 -126 0
-25 1 -25 78 -25 76 0 77 0 90 30 18 40 59 60 122 60 90 0 130 -39 130 -126
l0 -34 -115 0 c-140 0 -202 -12 -255 -51 -108 -79 -105 -255 5 -331 103 -72
276 -51 344 40 l20 27 1 -45 0 -45 85 -1 85 -1 0 252 c0 281 -6 314 -62 372
-56 58 -182 89 -294 73z m186 -438 c0 -89 -79 -157 -173 -149 -62 5 -97 36
-97 87 0 76 41 98 183 99 l87 1 0 -38z"/>
<path d="M7505 4816 c-77 -32 -152 -110 -180 -186 -31 -85 -28 -227 6 -300 52
-111 139 -175 253 -187 31 -3 56 -8 56 -10 0 -2 -10 -18 -22 -34 -17 -23 -23
-44 -23 -86 0 -47 4 -58 27 -78 33 -28 92 -39 164 -30 l54 6 0 48 0 48 -49
-11 c-41 -8 -53 -7 -75 7 -30 20 -34 52 -10 85 9 13 53 41 99 63 92 43 153
101 172 163 l11 36 -80 0 c-75 0 -81 -2 -104 -29 -96 -114 -297 -62 -321 84
l-6 35 263 0 263 0 -5 84 c-7 100 -36 174 -93 230 -59 60 -113 79 -235 83 -94
3 -111 1 -165 -21z m241 -125 c31 -14 47 -30 63 -63 39 -81 44 -78 -155 -78
l-176 0 7 28 c27 110 150 163 261 113z"/>
</g>
</svg>
