<?xml version="1.0" standalone="no"?>
<!DOCTYPE svg PUBLIC "-//W3C//DTD SVG 20010904//EN"
 "http://www.w3.org/TR/2001/REC-SVG-20010904/DTD/svg10.dtd">
<svg version="1.0" xmlns="http://www.w3.org/2000/svg"
 width="900.000000pt" height="275.000000pt" viewBox="0 0 900.000000 275.000000"
 preserveAspectRatio="xMidYMid meet">

<g transform="translate(0.000000,275.000000) scale(0.100000,-0.100000)"
fill="#000000" stroke="none">
<path d="M174 2734 c-54 -19 -119 -76 -147 -128 l-22 -41 -3 -1164 c-3 -1326
-9 -1225 82 -1316 92 -92 4 -86 1256 -83 l1095 3 57 28 c33 16 70 45 88 67 64
80 61 10 58 1295 l-3 1170 -27 47 c-36 61 -91 105 -152 123 -74 22 -2220 21
-2282 -1z m2253 -143 c79 -36 73 57 73 -1219 l0 -1139 -21 -27 c-47 -59 19
-56 -1157 -56 l-1079 0 -34 23 c-74 49 -69 -40 -67 1219 3 1122 3 1127 24
1155 11 15 36 36 55 45 32 17 105 18 1099 18 1025 0 1067 -1 1107 -19z"/>
<path d="M287 2483 c-4 -3 -7 -497 -7 -1098 0 -835 3 -1094 12 -1103 17 -17
2039 -17 2056 0 17 17 17 2179 0 2196 -9 9 -252 12 -1033 12 -562 0 -1025 -3
-1028 -7z m498 -504 c220 -188 275 -240 275 -259 0 -19 -387 -362 -416 -368
-38 -9 -93 54 -75 86 6 9 78 76 160 147 82 72 150 133 150 137 1 4 -68 66
-151 138 -84 72 -157 140 -162 151 -7 15 -3 26 19 49 16 17 38 30 49 30 12 0
77 -48 151 -111z m285 -921 l0 -133 67 75 c37 41 92 101 123 133 l55 58 72 -3
72 -3 -120 -129 c-65 -72 -119 -134 -119 -138 0 -5 55 -77 122 -161 66 -84
126 -158 131 -164 7 -10 -8 -13 -69 -13 l-79 1 -99 125 -99 125 -28 -27 c-28
-27 -29 -31 -29 -126 l0 -98 -60 0 -60 0 0 305 0 305 60 0 60 0 0 -132z m840
105 c64 -33 108 -85 117 -136 l6 -37 -54 0 c-51 0 -55 2 -70 33 -29 61 -123
85 -196 50 -19 -9 -47 -34 -61 -56 -25 -37 -27 -49 -27 -136 0 -116 17 -154
85 -188 53 -28 92 -29 146 -4 42 19 74 67 74 110 0 20 -5 21 -85 21 l-85 0 0
50 0 50 140 0 140 0 0 -73 c0 -40 -7 -94 -15 -119 -42 -121 -187 -185 -328
-144 -78 23 -136 70 -172 141 -27 53 -30 68 -30 154 0 118 24 181 92 241 57
50 110 68 199 69 58 1 80 -4 124 -26z"/>
<path d="M8796 2555 c-94 -33 -136 -98 -136 -207 l0 -68 -45 0 -45 0 0 -70 0
-70 45 0 45 0 0 -280 0 -280 85 0 85 0 2 282 3 281 83 -2 82 -2 0 70 0 71 -85
0 -85 0 0 54 c0 80 19 98 103 100 l67 1 0 68 0 67 -82 0 c-46 -1 -101 -7 -122
-15z"/>
<path d="M3187 2058 l3 -473 85 -3 85 -3 0 139 0 139 54 61 54 60 133 -196
134 -197 103 0 c56 0 103 3 105 6 1 3 -80 121 -181 261 l-182 256 167 202 c93
111 170 206 171 211 2 5 -38 9 -95 9 l-98 0 -175 -205 c-96 -113 -178 -205
-182 -205 -5 0 -8 92 -8 205 l0 205 -87 0 -88 0 2 -472z"/>
<path d="M7400 2373 l0 -93 -55 0 -55 0 0 -67 0 -68 54 3 55 4 3 -229 c3 -263
8 -280 88 -321 39 -20 57 -22 145 -20 l100 3 0 65 0 65 -50 3 c-115 6 -116 8
-113 247 l3 180 77 0 78 0 0 68 0 67 -80 0 -80 0 0 93 0 92 -85 0 -85 0 0 -92z"/>
<path d="M4277 2284 c-16 -8 -41 -36 -58 -62 l-29 -46 0 52 0 52 -85 0 -85 0
2 -347 3 -348 82 -3 82 -3 3 228 c3 208 5 231 23 263 32 53 78 75 158 75 l67
0 0 78 0 77 -67 0 c-41 -1 -79 -7 -96 -16z"/>
<path d="M6110 2287 c-131 -37 -197 -134 -170 -249 22 -90 84 -131 254 -167
126 -26 148 -40 144 -88 -8 -96 -175 -112 -226 -22 -17 28 -19 29 -99 29 -82
0 -83 0 -83 -25 0 -39 35 -99 77 -134 56 -46 128 -64 237 -59 77 3 99 8 146
33 129 70 166 207 83 306 -36 42 -90 67 -196 90 -145 31 -167 44 -167 102 0
83 166 100 212 21 l20 -34 84 0 84 0 -6 28 c-26 108 -124 173 -269 179 -45 1
-100 -3 -125 -10z"/>
<path d="M8029 2285 c-160 -51 -247 -190 -237 -376 13 -229 156 -350 400 -337
107 5 178 37 242 109 53 59 76 118 83 220 13 175 -56 302 -197 368 -69 31
-217 40 -291 16z m190 -135 c39 -11 86 -52 107 -93 21 -40 29 -147 15 -204
-26 -103 -89 -148 -201 -141 -78 4 -120 29 -152 91 -29 54 -32 204 -6 252 46
86 140 123 237 95z"/>
<path d="M4520 2215 l0 -65 185 -2 185 -3 -185 -215 -184 -215 -1 -67 0 -68
300 0 300 0 0 65 0 65 -201 0 c-117 0 -199 4 -197 9 2 5 71 87 153 183 241
277 227 257 228 322 l2 56 -292 0 -293 0 0 -65z"/>
<path d="M5194 2263 c4 -10 65 -167 137 -349 71 -181 129 -333 129 -337 0 -3
-9 -31 -20 -61 -24 -62 -54 -81 -120 -74 l-40 4 0 -68 0 -68 83 0 c95 0 140
17 173 67 11 17 69 159 128 316 58 157 133 353 165 436 l58 151 -87 0 -87 0
-84 -239 c-67 -192 -86 -235 -92 -218 -5 12 -44 119 -87 237 l-79 215 -91 3
c-85 3 -92 1 -86 -15z"/>
<path d="M6610 2215 l0 -65 181 -2 181 -3 -180 -210 -180 -210 -4 -68 c-2 -38
-1 -71 1 -73 2 -2 136 -4 298 -4 l293 0 0 65 0 65 -200 0 c-110 0 -200 2 -200
5 0 3 88 107 195 232 l195 226 0 53 0 54 -290 0 -290 0 0 -65z"/>
<path d="M4930 738 l0 -483 82 1 82 1 -3 52 -3 53 44 -45 c86 -90 231 -100
342 -23 91 63 126 139 134 283 8 162 -51 288 -162 345 -55 28 -185 36 -237 14
-35 -14 -99 -72 -99 -88 0 -4 -3 -8 -7 -8 -5 0 -7 85 -5 190 l3 190 -86 0 -85
0 0 -482z m424 53 c91 -56 114 -252 41 -347 -65 -85 -221 -80 -275 9 -17 27
-20 51 -20 149 l0 118 36 40 c20 22 50 44 68 50 43 13 112 4 150 -19z"/>
<path d="M5740 738 l0 -483 85 0 85 0 0 100 0 101 40 39 c24 24 43 35 49 30 5
-6 47 -68 93 -138 l85 -128 102 -2 c55 -1 101 1 101 4 0 3 -57 89 -126 190
-69 101 -128 189 -131 195 -2 6 54 74 126 151 71 78 127 144 124 147 -4 3 -50
6 -103 6 l-98 0 -128 -142 -129 -142 -3 277 -2 277 -85 0 -85 0 0 -482z"/>
<path d="M3522 1199 c-232 -30 -378 -240 -359 -519 15 -227 128 -378 317 -426
101 -26 239 -16 322 23 35 17 81 45 101 62 73 64 117 197 117 354 l0 67 -195
0 -195 0 0 -75 0 -75 105 0 105 0 0 -27 c-1 -71 -66 -153 -138 -173 -50 -14
-136 -13 -186 2 -61 18 -131 93 -150 159 -44 157 -20 322 58 407 43 48 95 67
181 67 63 0 89 -5 122 -22 45 -24 78 -64 88 -106 7 -27 7 -27 101 -27 l94 0
-6 28 c-45 199 -240 312 -482 281z"/>
<path d="M6700 949 c-36 -4 -84 -14 -105 -23 -75 -31 -135 -108 -135 -171 0
-25 1 -25 79 -25 76 0 79 1 85 25 10 38 61 65 123 65 92 0 133 -36 133 -118
l0 -40 -142 -4 c-149 -5 -184 -14 -242 -59 -65 -51 -85 -167 -43 -249 69 -138
313 -157 406 -32 l20 27 1 -45 0 -45 85 0 85 0 0 249 c0 275 -5 304 -56 365
-55 64 -163 93 -294 80z m180 -434 c0 -52 -23 -99 -61 -126 -27 -19 -47 -24
-96 -24 -80 0 -113 26 -113 90 0 72 41 93 183 94 l87 1 0 -35z"/>
<path d="M4316 926 c-76 -32 -137 -92 -172 -170 -25 -54 -28 -73 -28 -161 0
-87 3 -107 25 -155 52 -113 137 -174 257 -186 l63 -7 -20 -21 c-44 -47 -52
-112 -21 -163 25 -41 81 -57 167 -48 l63 7 0 47 0 48 -49 -11 c-41 -8 -53 -7
-75 7 -30 20 -34 52 -10 85 9 13 53 41 99 63 92 43 153 101 172 163 l11 36
-80 0 c-77 0 -80 -1 -106 -31 -94 -113 -295 -58 -319 86 l-6 35 263 0 263 0
-5 84 c-9 140 -66 234 -174 286 -40 19 -69 24 -154 27 -94 3 -111 1 -164 -21z
m242 -126 c33 -15 47 -29 62 -62 37 -81 43 -78 -155 -78 -133 0 -175 3 -175
13 1 47 59 121 110 140 34 12 117 6 158 -13z"/>
</g>
</svg>
